<svg class="img-fluid" xmlns="http://www.w3.org/2000/svg" style="transform:matrix(1,0,0,1,-3,1);transform-origin:50% 50% 0;cursor:move;max-height:none;transition:none 0s ease 0s" width="1000" height="1000" viewBox="2000 2000 6000 5000"><g fill="#FEFFFB" style="transform:none"><path d="M0 5000V0h10000v10000H0V5000zm4444 1431c38-21 64-72 72-143 7-57 6-58-18-58s-26 3-30 75c-3 41-11 81-18 90-8 10-30 15-67 15-99 0-93 19-93-300v-280l25-16c31-20 109-14 133 10 10 9 17 39 20 76 4 55 6 61 26 58 18-3 21-8 18-48-12-156-191-204-259-70-22 42-23 56-23 260 0 118 5 231 10 251 18 64 91 114 150 102 14-3 38-13 54-22zm-1752-133 3-153 78-3c68-3 77-5 77-22s-9-19-77-22l-78-3v-280l98-3c89-2 97-4 97-22 0-19-7-20-125-20h-125v680h49l3-152zm452 121c3-17 6-42 6-55 0-43 24-54 114-54 55 0 87 4 94 13 5 6 13 38 16 70 7 52 10 57 32 57 13 0 24-3 24-7 0-5-24-156-53-338l-53-330-56-3c-54-3-56-2-62 25-3 15-26 159-51 318-26 160-49 300-52 313-4 17-1 22 15 22 14 0 21-9 26-31zm566-229v-260h67l69 258 70 257 32 3 32 3v-681h-50v410h-65l-55-205-54-205h-86v340c0 333 0 340 20 340 19 0 20-7 20-260zm1220 143c0-116 1-122 65-336 36-119 65-220 65-223s-7-4-16-2c-12 2-28 44-58 158l-41 155-35 3-35 3-34-138c-19-76-38-148-42-160-10-28-53-33-45-5 128 425 126 419 126 544v118h50v-117zm710-38v-155h75c68 0 75-2 75-20s-7-20-75-20h-75v-290h95c88 0 95-1 95-20s-7-20-125-20h-125v680h60v-155zm670 130c0-25 0-25-95-25h-95v-630h-60v680h250v-25zm490 0v-25h-200v-270h80c79 0 80 0 80-25s-1-25-80-25h-80v-270h100c93 0 100-1 100-20s-7-20-130-20h-130v680h260v-25zm319-122 46-143h64l47 145c42 128 50 145 69 145 21 0 20-5-31-156-31-90-54-174-54-198 0-22 21-103 46-179 42-125 49-167 25-141-5 5-26 62-47 127l-38 117h-72l-40-122c-33-102-44-124-62-126-20-3-18 4 29 144 27 82 49 164 49 184s-25 107-55 194c-44 125-52 157-39 154 11-2 31-47 63-145zm-904-1045c-176-5-496-7-712-6l-392 3-11-60c-21-112-24-465-5-625 31-275 59-355 154-450 113-112 276-153 461-115 14 3 1-7-29-21-34-17-77-28-118-32l-64-5 3-36c3-32 9-40 56-67 133-80 344-84 491-10 28 15 51 22 51 16 0-5 10-10 23-10 20 0 22-4 19-43l-4-44-56 10c-32 5-104 7-162 4-58-2-141 0-185 5-82 9-247 58-281 83-10 8-38 15-61 15h-43v-37c1-85 64-302 121-415 36-72 126-205 171-254 38-42 147-120 188-137 12-4 12-6-2-6-21-1-25-50-7-83 20-37 2-30-21 9-13 21-74 88-135 148-96 94-195 219-195 247 0 4-16 8-35 8h-34l4-147c4-145 3-146-5-38-4 61-13 134-19 164-6 29-11 55-11 57s-9 4-20 4c-18 0-20 7-20 70 0 271-95 546-258 748-32 39-39 43-75 40-37-3-45-9-94-73-59-76-140-233-172-334-31-95-51-214-58-333-5-93-8-108-23-108-22 0-40-83-51-240-7-110-7-108-3 38l4 152h-33c-29-1-35-7-67-63-23-41-77-104-161-188-70-69-136-143-146-163l-19-38 4 61c3 47 1 61-9 61-8 0 13 15 45 33 122 65 236 203 325 392 63 131 110 298 111 388 0 37 0 37-40 37-22 0-55-9-74-19-54-31-190-70-274-80-42-4-124-6-182-4-58 3-131 1-162-5l-58-9v39c0 31 3 38 20 38 11 0 20 7 20 15 0 12 10 10 51-11 146-74 344-70 492 8 54 29 57 33 57 69v39h-45c-47 0-162 33-180 52-7 7-2 9 15 4 60-15 172-18 232-6 183 35 310 162 352 347 28 127 46 323 46 511 0 171-15 369-29 383-3 4-323 9-710 13-387 3-706 8-709 11s685 4 1529 3c1138-1 1451-3 1214-10zm-1455-158c0-6-99-10-252-12-369-4-610 1-603 12 8 13 855 14 855 0zm1335 0c4-7-140-10-424-10-281 0-431 3-431 10s148 10 424 10c273 0 427-4 431-10zm-1325-175c0-13-28-15-217-13-162 2-217 6-221 16-3 9 45 12 217 12 191 0 221-2 221-15zm905 6c8-15-106-22-274-19-112 2-155 6-159 16-3 9 44 12 212 12 120 0 217-4 221-9zm-55-770c0-5-6-14-14-20-12-10-13-8-9 8 5 21 23 30 23 12zm-654-278c4-30 8-33 39-33h35v55c0 30 4 55 9 55 14 0 31-85 24-122-8-42-40-113-58-128-20-17-34-4-61 54-27 57-31 124-12 177l13 34 3-30c1-16 5-45 8-62zm870-316c9-16 13-31 11-34-7-6-61 23-76 41-11 13-11 16 3 16 9 0 16 7 16 16 0 14 3 14 16 3 8-7 22-26 30-42zm-1628 1c12-3 8-9-16-22-19-9-35-16-37-14s4 19 12 38c12 25 17 30 20 18 2-9 12-18 21-20zm710-67-3-26-40 37-40 37 28 1c21 0 27 5 28 23 0 18 3 16 15-12 8-18 14-45 12-60zm220 49c27-1 27-1-13-38-38-35-40-36-43-14-2 12 2 39 9 60 11 31 14 33 17 15 3-17 10-23 30-23zm-703 21c-6-5-23-12-40-16-29-6-29-6-11 9 21 17 67 23 51 7zm1181-6c26-19-1-20-36 0-23 13-23 14-4 15 11 0 29-7 40-15zm654-21c6-15 7-32 1-41-7-14-10-13-20 6-11 19-7 61 5 61 2 0 9-12 14-26zm-2510-7c0-7-7-22-15-33-14-18-14-17-15 14 0 22 5 32 15 32 8 0 15-6 15-13zm620-97c0-5-7-10-15-10s-15 5-15 10c0 6 7 10 15 10s15-4 15-10zm640-229c0-11-5-32-11-48-10-27-11-27-25-9-8 11-14 32-14 48 0 23 4 28 25 28 18 0 25-5 25-19zm-183-278c-3-2-16 1-30 8-20 9-23 14-14 25 10 11 15 9 30-8 10-11 16-23 14-25zm357 5c-3-4-12-8-20-8-12 0-13 4-3 21 9 17 13 19 19 8 5-7 6-17 4-21zm-184-53c0-19-4-35-10-35-5 0-10 16-10 35s5 35 10 35c6 0 10-16 10-35zm-450-188c0-2-9-12-19-21-19-17-19-17-14 3 3 12 12 21 19 21 8 0 14-2 14-3zm180-228c0-11-4-17-10-14-5 3-10 15-10 26s5 17 10 14c6-3 10-15 10-26zm540 7c0-8-4-18-10-21-5-3-10 3-10 14 0 12 5 21 10 21 6 0 10-6 10-14z"/><path d="M3181 6213c0-32 10-121 22-198l22-140 35-3 35-3 23 153c12 84 22 174 22 201v47h-160l1-57z"/></g><g fill="#5C964A" style="transform:none"><path d="M4306 6480c-41-13-84-58-96-99-5-20-10-146-10-281 0-235 1-248 23-290 31-61 73-82 159-78 112 6 156 54 160 179l3 74-52 3-53 3v-45c0-61-15-94-46-106-20-8-32-7-50 5l-24 15v250c0 236 1 250 19 260 28 15 67 12 81-5 7-9 15-49 18-90l5-75h110l-5 85c-7 98-29 151-76 178-36 21-124 30-166 17zm-1696-370v-370h310v99l-97 3-98 3v220l75 1 75 1 3 51 3 51-78 3-78 3-3 153-3 152h-109v-370zm454 343c7-33 91-555 102-628 13-93 10-91 105-85l83 5 58 360c31 198 58 363 58 368 0 4-27 7-59 7h-60l-7-57c-3-32-10-63-15-69s-33-12-63-13c-60-2-86 14-86 53 0 13-3 38-6 55-6 30-8 31-61 31-54 0-55 0-49-27zm246-240c-1-52-47-318-53-303-7 17-47 286-47 313 0 14 9 17 50 17 48 0 50-1 50-27zm330-103v-370h145l57 208 56 207 1-207 1-208h110v741l-62-3-62-3-70-260-71-260-3 263-2 262h-100v-370zm1210 252c0-118 0-120-71-358-40-131-72-245-73-253-1-11 11-14 54-12 30 1 58 6 62 9 3 4 24 76 46 161 22 84 42 150 45 145s21-72 41-149 40-146 44-154c5-8 27-14 60-15 29 0 52 1 52 3s-34 116-75 255c-75 251-75 252-75 369v117h-110v-118zm700-252v-370h310v100h-190v232l75-4 75-3v105h-150v310h-120v-370zm480 0v-370h120v630h190v110h-310v-370zm480 0v-370h320v100h-200v210h160v110h-160v210h200v110h-320v-370zm485 353c4-10 34-96 67-190l60-173-61-180-60-181 61 3 62 3 40 123c22 67 43 122 46 122s23-53 44-117c21-65 42-122 47-128 8-8 89-8 97 0 2 2-22 82-54 177l-57 174 61 182c34 100 62 187 62 192 0 6-26 10-58 10h-59l-48-147-48-148-47 145-48 145-57 3c-52 3-57 1-50-15zM3437 5293c-14-13-7-52 11-61 9-4 330-9 712-11 382-1 697-4 701-6 22-14 36-431 20-591-17-162-47-306-77-366-108-213-382-297-587-179-95 54-197 183-197 247 0 13-4 24-10 24-41 0 33-193 107-279 67-79 208-149 308-153 25-1 45-5 45-9 0-3-26-20-57-37-165-87-357-74-499 34-41 31-44 30-44-12v-35l-51 28c-28 15-78 53-112 83-58 52-147 162-147 181 0 5 11 9 24 9 17 0 27 8 33 28 10 28 4 74-9 73-5-1-12-1-17-1-9 0-26-38-35-83-15-66 98-236 226-341 26-22 48-43 48-47s-15-16-32-26c-87-51-222-210-243-283-5-20-2-17 15 10 58 93 168 180 280 220 59 21 84 23 260 25 226 2 314 18 448 82 29 14 55 23 58 21 7-7-22-143-47-218-53-162-178-370-275-459-72-66-197-127-299-147-137-26-137-26-60-40 65-12 179-5 207 12 11 7 10-7-7-73-26-100-17-228 25-337 16-43 19-28 7 32-15 72 2 182 41 266 25 54 55 90 159 194 82 81 142 150 166 192l38 65-7-50c-4-27-7-93-6-145 3-218 98-429 263-584 86-82 132-108 69-40-117 126-184 248-226 412-30 113-35 274-14 386l13 68 21-27 22-27v128c0 279 98 557 263 744l31 35 31-35c171-194 274-498 264-775l-4-100 20 24c11 13 22 22 24 19 8-8 25-110 31-183 3-41-1-108-10-161-32-201-111-364-241-503-65-70-25-49 61 31 103 97 186 225 228 356 38 114 51 289 31 397-5 26-4 28 6 10 53-91 97-145 194-240 61-60 125-132 142-160 54-86 76-213 54-308-5-20-5-39-1-42s18 32 30 78c18 67 21 99 17 177-2 52-11 115-20 138l-15 44 26-8c65-17 121-21 189-11 83 11 79 22-11 32-129 15-288 95-374 189-45 49-135 182-171 254-53 105-133 373-116 390 3 3 19-2 35-12 37-21 157-63 225-78 28-6 138-12 245-13 172-2 203-4 258-24 117-40 213-117 283-226 45-70 49-69 13 5-46 95-128 192-219 258-27 19-52 37-54 39-3 2 15 20 40 40 79 67 134 131 187 220 47 79 52 92 47 128-7 42-36 92-51 88-5-2-10-19-12-39-3-35 8-58 28-60 6-1 15-2 20-3 20-2 9-25-41-91-54-72-107-120-185-169-61-39-74-39-74-1 0 36-3 37-43 6-143-107-350-121-500-33-46 27-75 56-45 44 26-10 141 19 207 53 138 69 229 197 250 350 8 64-4 74-15 12-16-94-116-213-219-262-172-81-354-52-486 80-92 92-123 179-153 430-15 133-13 483 4 582l11 63h705c646 0 707 1 721 17 11 13 12 21 3 37l-11 21H5001c-857 0-1561-3-1564-7z"/><path d="M3910 4492c0-51 51-96 66-58 7 18-21 72-41 80-24 9-25 8-25-22zm2142 15c-35-42-31-104 5-81 24 15 45 58 37 78-7 19-28 21-42 3zm-2160-136c-19-11-4-39 30-57 32-17 58-13 58 9 0 30-63 64-88 48zm2183 1c-40-8-70-52-46-66 23-14 91 29 91 57 0 9-25 13-45 9zm-2305-41c0-38 78-79 96-50 9 15-35 55-68 63-23 5-28 3-28-13zm2388-10c-33-29-31-51 3-51 22 0 69 42 69 62 0 24-40 18-72-11zm-2681-2c-7-26 5-60 28-79 14-12 18-12 26 1 14 22 11 44-12 73-25 32-35 33-42 5zm3004-5c-23-29-26-51-12-73 20-31 65 36 54 78-7 28-17 27-42-5zm-218-44c-17-27-16-62 2-86 15-19 15-19 30 0 20 26 19 59-2 85-18 22-18 22-30 1zm-2563-9c-14-27-13-54 4-76 28-39 60 26 40 79-8 22-31 20-44-3zm194-7c3-9 6-17 6-20 0-11 64-34 80-29 46 14-2 65-61 65-24 0-30-3-25-16zm2127-7c-19-21-20-25-6-37 26-21 95 18 95 54 0 3-15 6-33 6-22 0-41-8-56-23zm-2616 3c-8-13 48-70 68-70s40 26 32 41c-8 11-66 39-84 39-5 0-13-5-16-10zm3124-5c-30-16-41-36-30-54 11-17 54-4 81 24 37 40 3 60-51 30zm-2748-44c-22-39-10-91 20-91 23 0 36 42 23 78-12 33-30 38-43 13zm2398-8c-13-34 2-78 26-78 26 0 35 35 19 73-16 39-31 41-45 5zm-2538-19c-12-15-21-40-21-55 0-24 4-29 24-29 27 0 36 16 36 65 0 45-14 51-39 19zm216 7c-12-47 17-99 49-87 20 8 13 60-13 88-21 23-29 23-36-1zm2250 1c-25-27-32-76-14-90 12-11 19-8 36 14 22 29 24 36 15 72-8 27-16 28-37 4zm218 8c-12-19-8-69 6-86 6-8 20-14 30-14 14 0 19 7 19 29 0 36-42 91-55 71zm-2385-45c0-19 37-43 78-51 28-6 32-4 32 14 0 11-11 27-25 36-31 21-85 21-85 1zm2039 2c-9-7-19-22-23-35-6-18-4-22 14-22 40 0 90 36 90 66 0 9-66 2-81-9zm-2526-5c-30-5-29-28 1-48 36-23 71-15 71 15 0 26-30 40-72 33zm3047-2c-29-7-40-47-16-56 18-7 86 14 86 27v17c0 11-43 19-70 12zm-2790-40c-14-26-9-82 7-87 18-6 44 53 37 82-7 30-29 33-44 5zm2547 13c-19-18-1-105 21-101 30 6 37 34 19 72-16 35-27 43-40 29zm-2393-67c-7-29 20-86 41-86 25 0 24 64-2 92-22 24-31 23-39-6zm126 10c0-20 27-45 56-52 51-13 58 37 9 56-37 14-65 12-65-4zm1940-11c-17-19-21-28-13-36 23-23 93 13 93 47 0 24-54 17-80-11zm172 13c-24-30-31-65-16-84 13-18 15-18 34 6 12 15 19 37 18 54-3 33-19 43-36 24zm-2310-18c-16-26-15-75 2-89 22-18 50 32 41 75-7 38-24 44-43 14zm2377-3c-13-30 4-87 26-87 36 0 39 64 4 96-17 16-19 15-30-9zm272 10c-34-17-36-32-6-45 26-12 67-3 80 18 16 26-39 45-74 27zm-2956-7c-17-27 42-56 80-38 28 13 30 19 13 36-15 15-84 16-93 2zm472-62c-8-30 21-90 42-86 22 4 25 30 7 72-17 40-41 47-49 14zm2044-4c-24-30-27-54-9-72s24-15 41 21c16 32 13 77-3 77-5 0-18-12-29-26zm-2438-26c-39-10-41-20-8-42 31-20 79-21 95-1 15 18 15 18-25 37-22 11-39 13-62 6zm487-24c0-28 40-74 65-74 23 0 18 43-7 67-38 34-58 36-58 7zm1880 18c-23-7-60-44-60-59 0-8 4-11 10-8s7-1 4-9c-9-23 11-20 41 7 30 25 33 78 5 69zm426-11c-15-16-15-19-1-31 19-16 83-7 104 15 14 14 14 17 1 25-26 17-86 12-104-9zm-2200 0c-13-20 34-91 60-91 34 0 22 56-18 84-26 18-35 20-42 7zm1654-4c-34-17-59-62-43-78s60 13 74 48c13 34 0 46-31 30zm-2190-88-25-10 28-25c34-29 82-32 96-5 8 14 7 22-3 30-20 17-68 22-96 10zm2669-8c-20-16-21-21-10-35 25-30 111-8 111 28 0 30-67 35-101 7zm-2696-61c-29-12-29-25-1-44 30-21 87-21 95 0 12 32-51 62-94 44zm2757-2c-13-5-30-14-37-19-18-16 8-39 44-39 29 0 73 24 73 40 0 15-54 28-80 18zm-2470-77-24-19 36 11c20 6 34 15 32 19-8 12-16 9-44-11zm2214 4c11-8 25-15 30-15 6 0 2 7-8 15-11 8-25 15-30 15-6 0-2-7 8-15zm-2558-8c-16-12-16-13 1-29 30-26 68-30 94-10l22 19-24 16c-28 20-69 22-93 4zm2836-2c-18-14-20-19-9-36 10-16 19-19 47-14 19 4 43 14 53 23 17 16 17 17 1 29-24 18-65 16-92-2zm-112-63c0-5 10-17 22-28l21-19-18 28c-18 28-25 33-25 19zm-2749-13c-62-25-58-59 6-59 67 0 99 41 47 60-14 6-26 10-27 9-1 0-13-5-26-10zm2934 3c-31-6-38-18-26-41 20-36 122-25 108 12-7 18-54 35-82 29zm-2992-108c-21-21-23-28-12-35 22-14 44-10 73 12 36 28 34 49-4 49-20 0-40-9-57-26zm3007 12c0-18 47-56 69-56 9 0 22 4 30 9 11 7 9 14-12 35-29 29-87 37-87 12zm-2435-26c-40-16-86-76-92-117-3-24-1-43 6-47 14-9 91 25 113 50 21 24 51 94 43 102-3 3-22-10-42-29l-37-34 27 37c15 20 27 39 27 42 0 8-21 6-45-4zm1905 2c0-6 4-13 10-17 5-3 19-20 31-38 21-30 20-30-19 8-41 38-42 39-42 14 0-53 64-117 133-134 25-7 27-5 27 25 0 43-26 96-59 120-34 23-81 36-81 22zm-2077-34c-24-27-36-71-28-98 5-16 10-17 31-8 30 14 54 56 54 95 0 22-2 25-10 13-8-13-10-12-10 3 0 23-12 22-37-5zm2264 5c6-16 5-16-10-4s-17 11-17-12c0-37 19-74 48-93 20-13 26-14 34-3 14 22 1 79-23 105-26 28-41 31-32 7zm-2663-37c-25-11-44-33-44-51 0-10 34-13 59-4 28 10 51 39 31 39-5 0-7 7-4 15 7 18-1 18-42 1zm713-4c-24-26-21-42 7-42 30 0 72 33 62 48-11 18-51 14-69-6zm1597 7c-9-15 34-48 63-49 31 0 35 14 12 38-21 24-63 29-75 11zm730-13c-1-19 6-29 31-40 38-18 51-20 59-7 10 16-5 41-35 56-40 21-54 19-55-9zm-2961-23c-3-10-8-22-11-27s0-6 6-2c7 4 12 13 12 21 0 7 8 16 18 18 16 4 16 5-1 6-10 0-20-7-24-16zm2908 10c10-2 19-14 23-26 3-11 7-19 10-16s3 15-1 27c-3 15-13 22-27 21-15-1-16-3-5-6zm-2730-49c-22-28-30-104-10-104 37 0 79 56 79 105 0 26-15 34-23 13-4-10-6-10-6 0-1 20-18 14-40-14zm2514 16c-17-28 38-120 72-120 21 0 16 73-8 104-23 30-41 34-33 9 5-17 4-17-9 0-10 12-17 15-22 7zm-2152-20c-28-11-29-26-4-40 27-14 44-13 67 4 32 24-19 53-63 36zm1787-10c-13-9-12-12 4-25 11-8 27-15 36-15 24 0 54 25 46 38-9 15-65 15-86 2zm-2275-64c-12-29-13-42-2-72 15-48 28-52 50-15 19 33 22 73 7 102-16 29-39 23-55-15zm2774 10c-20-43 15-146 41-120 20 20 28 69 16 104-14 43-42 51-57 16zm-2369 4c0-14 38-50 53-50 6 0 19 4 27 10 12 7 12 12-4 29-19 21-76 29-76 11zm1950-8c-21-17-21-19-5-32 15-12 21-12 43 1 15 8 28 22 30 32 5 23-39 23-68-1zm-2035-32c-9-14 2-28 37-46 27-14 32-14 45-1 13 12 11 17-13 36-29 22-59 27-69 11zm2121-11c-25-19-26-23-13-37 14-13 19-13 49 5 18 10 34 27 36 36 5 25-39 22-72-4zm-2204-40c-22-8-22-10-6-34 9-14 25-30 35-35 28-16 79-12 86 6 13 35-69 80-115 63zm2304 0c-30-8-66-36-66-51 0-25 28-37 63-27 35 9 81 54 72 69-8 13-39 17-69 9zm-2391-70c-11-17 26-49 57-49 34 0 37 22 6 44-26 18-54 21-63 5zm2465-7c-28-22-18-56 14-46 29 9 60 40 52 53-11 16-41 13-66-7zm-2040-7c-24-14-24-14-3-15 12 0 25 5 28 11 11 17 2 18-25 4zm290-11c-39-33-60-74-60-116 0-46 13-63 36-50 38 20 76 71 85 112 13 57-2 71-29 28-26-39-28-34-7 16 8 20 13 36 11 36-3 0-18-12-36-26zm1075-9c21-51 19-56-6-16-17 28-23 32-29 20-17-29 7-92 50-132 22-21 46-37 53-34 7 2 12 24 12 58 0 60-20 95-68 124l-28 17 16-37zm285 25c0-9 39-25 46-18 2 3-7 10-21 16s-25 7-25 2zm-1742-47c-10-2-18-9-18-14 0-15 43-7 48 9 4 12 0 13-30 5zm1834-4c5-17 48-25 48-10 0 6-4 11-9 11s-17 3-27 7c-12 4-15 2-12-8zm283-19c-4-6 7-10 24-10s31 5 31 10c0 6-11 10-24 10-14 0-28-4-31-10zm-2215-10c-11-7-7-10 18-10 17 0 32 5 32 10 0 13-30 13-50 0zm2020 0c0-5 12-10 28-9 24 0 25 1 7 9-27 12-35 12-35 0zm-2210-20c20-13 60-13 60 0 0 6-17 10-37 10-28 0-34-3-23-10zm2380 1c0-6 5-13 10-16 8-5 8-11 0-20-9-11-6-17 14-30 45-30 77-1 34 29-22 16-22 16-3 31 19 13 18 14-17 15-21 0-38-4-38-9zm-2384-40c-22-24-12-44 17-35 37 11 49 25 36 40-16 19-33 17-53-5zm530-6c-9-25-7-51 6-80 24-52 53-17 46 56-2 26-8 35-24 37-13 2-24-4-28-13zm1337-12c-11-32 2-93 19-93 28 0 48 63 32 104-10 26-41 19-51-11zm-1801-15c-22-22-14-39 16-32 37 9 42 13 42 30s-41 19-58 2zm1638 2c0-6 5-20 11-32 6-11 8-22 6-25-3-3-12 8-20 24-13 24-16 26-22 10-18-46 20-124 76-153 28-14 30-14 39 11 18 47-11 120-60 155-16 12-30 16-30 10zm622-2c5-16 57-42 66-33 3 3 1 14-4 23-13 21-68 30-62 10zm-2170-11c-17-20-25-64-13-71 15-10 61 39 61 64 0 23-31 28-48 7zm550-3c-39-27-56-74-53-146 1-36 18-35 63 3 40 32 62 85 56 134l-3 30-23-40c-21-36-25-26-7 18 9 21-4 22-33 1zm1545 9c-13-13-7-34 18-58 34-35 49-32 41 7-9 48-38 73-59 51zm-2015-26c-24-26-29-57-9-57 25 0 58 32 55 53-4 29-21 31-46 4zm1925 16c-15-25 30-73 67-73 23 0 20 14-10 49-25 30-48 39-57 24zm-220-62c-20-33-23-86-5-97 17-11 58 42 58 75 0 25-15 51-30 51-3 0-13-13-23-29zm-1482 0c-8-27 3-66 25-86 25-22 40-11 40 28 0 58-50 103-65 58zm-193-18c-27-23-39-63-19-63 23 0 67 40 67 61 0 24-21 25-48 2zm1873 7c-13-21 32-70 64-70 19 0 12 30-14 55-26 27-40 31-50 15zm-1576-54c-14-29-4-89 17-106 35-30 62 80 28 114-21 22-33 20-45-8zm1271-2c-6-14-10-34-10-44 0-24 21-70 31-70 15 0 39 45 39 73 0 62-42 90-60 41zm-1073-37c-49-50-66-147-26-155 44-8 119 110 101 159-7 17-9 16-26-12-20-34-34-33-16 1 21 40 4 43-33 7zm885 18c3-11 9-29 13-40 4-12 0-9-11 8-25 37-34 34-34-12 0-45 34-100 73-119 37-18 47-9 47 42 0 47-28 98-69 125-23 15-24 15-19-4zm-1381-21c-40-51-15-74 34-31 18 15 24 28 20 40-10 24-30 21-54-9zm1859 7c0-11 12-29 26-40 51-40 73-18 33 33-24 31-59 35-59 7zm-147-13c-12-13-26-42-32-65-10-38-31-60-31-33 0 19-28 10-44-15-21-32-30-77-22-110 8-32 21-32 56 4 21 21 31 42 36 80s11 51 23 51c41 0 90 82 60 101-20 12-23 12-46-13zm-1549 6c-27-11 11-79 53-95 15-5 24-20 29-46 13-70 56-125 84-108 26 16 2 128-30 145-26 14-33 12-26-5 4-12 2-13-13-3-11 6-21 27-25 46-8 53-38 80-72 66zm-143-77c-15-19-25-73-14-80 21-13 53 24 53 59 0 36-18 46-39 21zm1846 6c-4-3-7-19-7-34 0-28 35-63 52-53 13 8 9 48-8 72-16 23-26 27-37 15zm-344-20c-18-12-23-25-23-57 0-23 6-51 14-62 15-19 15-19 30 1 23 30 30 79 14 108-12 23-14 24-35 10zm-1166-29c-10-59 19-108 48-84 18 15 20 91 3 108-24 24-45 14-51-24zm230 18c-27-29-37-77-26-117 6-19 14-35 19-35 4 0 20 14 35 31 22 27 25 40 23 83-3 57-22 70-51 38zm698 6c-6-16-9-47-7-75 2-22 47-83 63-83s30 76 18 107c-20 53-63 82-74 51zm-153-19c-7-11-11-23-9-25 7-7 29 24 25 36-2 6-9 1-16-11zm-977-10c-9-13 20-45 46-52 27-7 25 28-3 47-26 19-35 20-43 5zm1565-9c-11-11-20-27-20-34 0-12 6-13 29-5 30 11 46 33 35 50-8 14-22 11-44-11zm-1679-52c-10-27-3-50 13-45 14 5 36 48 30 59-10 16-35 8-43-14zm439-10c-22-36-27-78-9-78 38 0 76 54 64 91-9 29-33 23-55-13zm907 25c-23-22 19-103 54-103 14 0 19 7 19 29 0 46-50 98-73 74zm453-16c0-31 28-57 40-37 11 18-3 54-24 58-11 3-16-4-16-21zm-1180-38c-28-50 0-154 39-147 41 8 44 127 4 159-15 12-16 12-10-6 7-19 6-19-7-2-14 18-15 18-26-4zm577-1c4-22 4-22-10-5-15 18-16 18-26-2-25-45-6-141 27-141 35 0 57 103 33 148-15 29-30 28-24 0zm-1057-1c0-19 21-37 42-37s24 20 6 38c-16 16-48 15-48-1zm1510-8c-6-11-10-24-8-29 5-15 52 13 56 33 5 25-35 22-48-4zm-1598-9c-16-26-15-50 2-50 21 0 36 24 29 48-7 27-15 28-31 2zm1709 6c-11-13-11-20 3-41 9-14 21-25 26-25 14 0 12 43-3 64-12 16-14 16-26 2zm-316-7c-20-31-24-73-10-107 15-34 16-34 35-17 21 19 34 65 26 92-8 24-43 46-51 32zm-1090-23c-18-27-12-70 13-98 30-35 56 17 40 81-12 46-30 52-53 17zm-232-21c-6-18 23-55 44-55 17 0 17 20-3 48-18 26-32 28-41 7zm355 4c-22-13-23-60-3-99s33-38 51 5c12 31 12 39 0 70-16 37-21 40-48 24zm842-8c-19-37-7-121 18-121 15 0 42 58 42 89 0 20-7 34-19 41-26 14-29 13-41-9zm360-1c-23-23-26-50-7-50s47 33 47 53c0 23-16 21-40-3zm-926-78c2-42 9-60 30-80 23-23 28-25 36-12 16 26 11 93-9 118-19 21-48 32-36 12 3-5 2-10-4-10-5 0-12 6-15 13-3 6-4-12-2-41zm273 19c-18-32-22-87-7-111 22-34 93 83 76 126-10 25-50 16-69-15zm-457-20c-15-29-12-63 9-91 16-20 21-22 35-11 30 25 15 121-19 121-8 0-19-9-25-19zm650 0c-15-29-12-87 5-101 21-17 43 2 51 45 11 58-32 101-56 56z"/></g><path d="M3864 5114c-16-24-16-26 0-42 15-15 55-17 414-17 218 0 423 1 455 3l57 4v78h-910l-16-26zm1346-16v-43h453c370 0 457 3 470 14 22 18 21 34-1 54-17 15-64 17-470 17h-452v-42zm-918-140c-17-17-15-42 6-61 16-15 49-17 260-17h242v90h-248c-180 0-251-3-260-12zm920-30 3-43 238-2c251-2 267 1 267 46 0 39-16 41-268 41h-243l3-42zm-1179-410c-27-31-27-108-1-108 32 0 49 71 25 104-11 15-15 15-24 4zm1901-23c-7-39 10-85 31-85 6 0 17 11 25 24 11 21 10 29-6 57-27 46-42 47-50 4zm-1318-40c-13-49 17-122 63-155 25-17 33-19 49-9 40 25 11 116-51 163-42 32-53 33-61 1zm105-137c5-10 6-18 1-18s-14 11-20 25c-22 49-11 44 19-7zm624 152c-50-20-100-105-88-150 5-19 7-18 29 12 28 37 31 31 8-13-8-17-14-33-12-35s20 7 40 21c43 29 69 88 61 139-6 38-7 39-38 26zm-1279-81c-30-35-33-57-9-66 21-8 63 40 63 73s-23 31-54-7zm1814 7c0-28 35-76 56-76 23 0 17 54-9 78-30 29-47 28-47-2zm-1354-71c-9-48 23-118 65-144 18-11 35-19 37-17s-4 18-13 36-15 34-12 36c2 2 12-12 23-31 23-43 34-45 34-6 0 59-40 120-97 150-30 15-30 15-37-24zm870-7c-33-33-45-53-51-86-4-28-3-48 4-55 8-8 11-7 11 4 0 15 39 70 40 56 0-4-7-21-15-37-14-27-14-30 1-30 45 0 99 100 87 161-8 40-25 36-77-13zm-1289 2c-27-22-34-53-18-79 7-11 13-9 30 8 24 24 37 69 24 82-6 6-19 2-36-11zm1743-5c0-24 29-75 43-75 38 1 43 33 9 73-19 21-52 22-52 2zm-1687-67c-22-46-23-61-7-79 10-11 20-19 24-19 15 0 32 59 25 89-8 36-27 40-42 9zm309 10c-23-28-26-77-7-118 19-42 52-57 42-20-3 11-1 18 4 14 5-3 9-12 9-20s5-12 10-9c6 3 10 27 10 53 0 38-6 55-28 81-23 28-29 31-40 19zm1019-12c-24-26-39-100-27-132 6-16 8-16 21 2 13 16 14 16 9 2-3-10-1-18 5-18 16 0 51 61 51 88 0 20-25 82-34 82-1 0-13-11-25-24zm309 5c-14-28-13-53 6-79 15-22 17-22 35-6 23 21 23 27 3 70-19 39-29 42-44 15zm-1440-46c-14-42-7-91 17-117 15-17 17-17 29 0 9 11 13 13 14 4 0-7 5-10 10-7 18 11 11 81-12 115-32 46-44 47-58 5zm1230 10c-31-33-41-124-15-145 16-13 21-11 46 20 31 36 37 78 19 124-12 32-20 32-50 1zm110 0c-31-33-35-111-7-129 15-9 21-7 38 14 15 19 19 36 16 73-5 63-17 74-47 42zm-1444-7c-11-42-6-83 14-108 27-35 54-18 58 37 5 64-57 125-72 71zm-224-98c-10-17-10-20 3-20 8 0 15 9 15 20s-1 20-3 20c-1 0-8-9-15-20zm925-58c-9-10-26-40-39-67-46-103-23-243 54-322l31-32 34 41c52 63 66 103 67 193 1 81-16 135-59 189-26 33-30 17-35-124-2-82-19-30-21 65-1 41-5 75-9 75s-14-8-23-18zm-1254-229c-18-6-16-23 1-23s30 16 19 23c-5 2-14 2-20 0zm2577-8c0-8 7-15 16-15 14 0 14 3 4 15-7 8-14 15-16 15s-4-7-4-15zm-1480-107c0-6 14-36 31-66s29-55 27-57-21 23-43 56c-22 32-44 59-49 59-11 0 0-114 15-141 37-70 135-137 161-111 6 6 10 33 10 62 0 66-35 135-91 177-45 35-61 40-61 21zm360-5c-78-51-109-107-110-195 0-31 5-60 10-63 35-22 135 57 164 129 16 39 21 107 9 119-3 4-21-16-40-43-18-28-36-50-38-50-3 0 6 22 20 50 37 72 33 84-15 53zm-1293-25c-36-34-55-97-42-137 6-20 8-20 35-6 63 33 103 128 68 163-17 17-23 16-61-20zm176 12c-35-21-57-56-66-107-5-26-3-33 9-33 32 0 82 29 106 61 25 33 42 79 30 79-3 0-17-10-30-22-26-23-21-8 6 25 14 15 13 17-4 17-10 0-33-9-51-20zm1874-17 27-38-33 30-34 30 7-35c8-41 39-78 83-96 54-23 66-19 58 19-16 70-68 127-118 127-16 0-14-5 10-37zm179 0c15-34 15-36 0-24-9 7-16 20-16 27 0 8-4 14-10 14-21 0-10-73 16-107s77-67 88-56c12 12 6 75-10 109-16 33-57 74-75 74-4 0-1-17 7-37zm-1871 10c-53-28-85-66-101-120-8-29-13-57-9-63 18-29 119 11 160 64 15 20 29 53 32 78l5 43-47-45c-39-37-44-39-27-14 12 17 28 37 37 44 37 31 1 40-50 13zm1485 9c0-5 11-19 25-32s25-28 25-34c0-5-16 5-35 24l-35 34v-27c0-32 30-95 57-119 26-23 87-48 119-48 25 0 26 2 19 43-9 51-20 74-54 110-36 40-121 74-121 49zm-1998-102c-26-53-27-79-8-125 19-44 39-44 65-1 24 39 27 99 6 136l-14 25-1-24c0-28-15-18-22 14-4 16-9 11-26-25zm2548 26c0-19-16-21-23-3-7 19-27-40-27-80s34-103 56-103c18 0 44 52 44 90 0 32-25 96-41 106-5 3-9-2-9-10zm-2730-9c0-13 49-31 59-21 7 7-12 21-36 29-17 4-23 2-23-8zm854 2c-43-12-81-54-65-73 27-32 122-23 157 15 20 22 10 59-16 59-10 0-24 2-32 4-7 2-27 0-44-5zm1161 2c-40-8-46-43-12-66 44-29 86-36 123-20 19 8 34 18 34 24 0 13-59 61-75 61-7 0-19 2-27 4-7 2-26 1-43-3zm871-9c-3-6-1-14 5-17 15-10 25 3 12 16-7 7-13 7-17 1zm-2902-87c-19-14-18-14 4-15 13 0 22 6 22 15 0 19-1 19-26 0zm105-26c-13-24-4-89 13-89 31 0 50 74 26 98-17 17-26 15-39-9zm2723 9c-18-18-15-53 8-79 17-21 21-22 30-9 20 31 7 100-20 100-3 0-11-5-18-12zm-2042-38-25-20 24-20c42-36 141-22 141 20s-95 55-140 20zm1283 8c-28-14-30-44-4-58 31-16 93-12 125 9l29 19-34 21c-37 23-81 26-116 9zm-825-32c-22-16-23-48-2-92 18-37 77-80 95-68 17 10 5 91-18 122-31 41-55 53-75 38zm25-38c6-22 5-22-8-4-17 22-20 40-6 32 5-3 11-16 14-28zm408 26c-29-21-51-72-51-119 0-40 10-43 55-15 54 33 87 130 49 144-23 9-27 8-53-10zm35-26c-18-26-22-17-5 14 6 11 13 17 16 15 3-3-2-16-11-29zm-1696-13c-11-29 6-88 24-82s35 50 29 80c-7 35-40 37-53 2zm2889-2c-11-29 3-72 27-80 16-5 35 54 28 83-9 34-42 31-55-3zm-2212-39c-32-17-31-34 4-51 37-19 93-16 120 7l24 20-24 20c-28 24-84 26-124 4zm1462-4-24-20 24-20c39-34 156-18 149 20-8 40-110 53-149 20zm-2199-19c-14-27-13-64 3-86 13-17 15-17 30 6 18 24 22 56 11 83-8 22-31 20-44-3zm3016 3c-11-27-7-59 11-83 15-23 17-23 30-6 16 22 17 59 3 86-13 23-36 25-44 3zm-1486-28c0-14-4-28-10-31-6-4-10 5-10 19 0 35-12 33-30-6-30-65-4-188 41-195 44-8 77 133 45 195-21 41-36 49-36 18zm-872-23c-22-6-22-8-2-39 21-31 64-54 102-54 63 0 42 71-25 89-40 11-47 12-75 4zm605-6c18-44 17-50-2-22l-21 30v-39c0-48 31-100 72-121 25-12 33-13 40-3 24 39-9 121-62 152-30 18-33 18-27 3zm1067 6c-34-14-70-46-70-63 0-34 58-40 107-11 28 18 52 56 41 67-8 8-63 13-78 7zm-573-14c-21-12-57-84-57-114 0-45 16-51 58-22 43 28 80 101 68 133-6 16-8 15-22-2s-15-17-10-1c6 19-10 22-37 6zm-1183-73c-14-36 88-99 132-82 22 8 17 40-10 65-33 31-113 41-122 17zm1799-12c-37-29-43-60-13-69 46-15 140 44 127 79-10 26-77 20-114-10zm232-24c-3-5 3-10 14-10 12 0 21 5 21 10 0 6-6 10-14 10s-18-4-21-10zm-2075-44c0-20 27-45 55-52 48-12 62 23 20 50-31 20-75 21-75 2zm1921-5c-26-20-24-51 4-51 30 0 75 30 75 50 0 26-46 27-79 1zm-1986-22c-11-17 26-49 57-49 35 0 36 12 2 39-29 23-49 27-59 10zm2072-7c-24-26-21-42 6-42s62 33 52 49c-10 17-40 13-58-7zm-2167-13c0-15 26-39 44-39 24 0 31 22 11 37-22 16-55 17-55 2zm2259-8-24-19 28-7c29-8 57 7 57 31 0 20-34 17-61-5zm-2339-6c0-17 30-35 59-35 26 0 27 18 4 36-24 18-63 18-63-1zm938 4c-17-9-17-13-3-47 9-20 23-45 33-55 27-30 88-57 127-57 34 0 35 1 29 28-24 99-122 169-186 131zm53-35c21-24 22-26 3-16-25 13-50 42-37 42 5 0 20-12 34-26zm446 20c-45-30-77-78-77-118 0-28 1-28 45-24 54 7 110 46 133 95 31 66-29 95-101 47zm103 2c0-2-19-16-42-31l-43-28 29 32c25 26 56 41 56 27zm876 9c-20-15-16-45 6-45 21 0 58 29 58 46 0 18-39 18-64-1zm-1204-85c-23-38-25-102-4-140 25-45 40-44 65 3 25 48 17 119-16 142-28 19-30 19-45-5zm764-75c4-8 13-15 21-15 13 0 13 3 3 15-7 8-16 15-21 15s-6-7-3-15zm-965-54c-33-21 26-73 83-73 65 0 76 30 24 62-35 21-83 26-107 11zm357-6c-23-13-46-50-36-60 4-4 47-8 75-6 12 1 35 13 53 27 24 21 28 29 19 40-15 18-77 17-111-1zm636-57c-4-7-3-8 4-4s12 2 12-3c0-6 7-11 15-11 20 0 19 16-1 24-21 8-22 8-30-6zm-1564-8c-8-5-6-9 5-14 22-8 22-8 28 7 5 14-15 18-33 7zm623-87c-10-25 41-63 85-63 46 0 65 11 56 34-16 41-128 64-141 29zm245-13c-32-29-32-31-14-45 34-26 136 3 136 38 0 46-75 50-122 7zm642 1c0-5-6-11-13-13-9-2-8-8 5-20 17-17 18-17 18 12 0 17-2 30-5 30s-5-4-5-9zm70-25c0-9 7-16 16-16s14 5 12 12c-6 18-28 21-28 4zm-240-126c6-11 15-20 20-20 17 0 11 15-11 28-19 12-19 11-9-8zm-118-37c2-9 9-18 16-21 18-6 15 25-4 32-11 4-14 1-12-11zm-282-41c0-5 9-17 21-28 21-19 21-19 18 6-4 23-39 43-39 22z" fill="#A7CF45" style="transform:none"/></svg>